# xmcd CD database file
#
# Track frame offsets:
#	150
#	27172
#	44120
#	79245
#	128100
#
# Disc length: 2036 seconds
#
# Revision: 0
# Processed by: cddbd v1.5.2PL0 Copyright (c) Steve Scherf et al.
# Submitted via: CDex 1.70beta2
#
DISCID=3e07f205
DTITLE=Caribbean Sextet - Caribbean Sextet
DYEAR=1993
DGENRE=Jazz
TTITLE0=Lavironn Dede
TTITLE1=La Peson'n
TTITLE2=Libete
TTITLE3=Tante Nini
TTITLE4=Rechanye lot
EXTD=YEAR: 1993
EXTT0=
EXTT1=
EXTT2=
EXTT3=
EXTT4=
PLAYORDER=
